<svg xmlns="http://www.w3.org/2000/svg" width="12" height="16" viewBox="0 0 12 16"><defs><style>.a{fill:#fff;}.b,.c{stroke:none;}.c{fill:#e5e5e5;}</style></defs><g class="a"><path class="b" d="M 11.5 15.12947845458984 L 6.25193977355957 12.06811046600342 L 6 11.92115020751953 L 5.74806022644043 12.06811046600342 L 0.5 15.12947845458984 L 0.5 1.5 C 0.5 0.9485999941825867 0.9485999941825867 0.5 1.5 0.5 L 10.5 0.5 C 11.05140018463135 0.5 11.5 0.9485999941825867 11.5 1.5 L 11.5 15.12947845458984 Z"/><path class="c" d="M 11 14.25896263122559 L 11 1.5 C 11 1.224300026893616 10.77569961547852 1 10.5 1 L 1.5 1 C 1.224300026893616 1 1 1.224300026893616 1 1.5 L 1 14.25896263122559 L 5.496129989624023 11.63621997833252 L 6 11.34230041503906 L 6.503870010375977 11.63621997833252 L 11 14.25896263122559 M 12 16 L 6 12.5 L -8.881784197001252e-16 16 L -8.881784197001252e-16 1.5 C -8.881784197001252e-16 0.6715599894523621 0.6715599894523621 0 1.5 0 L 10.5 0 C 11.32843971252441 0 12 0.6715599894523621 12 1.5 L 12 16 Z"/></g></svg>