<svg xmlns="http://www.w3.org/2000/svg" width="19.25" height="22" viewBox="0 0 19.25 22"><defs><style>.a{fill:#0f4c62;}</style></defs><path class="a" d="M13.75,19.25v1.719A1.031,1.031,0,0,1,12.719,22H1.031A1.031,1.031,0,0,1,0,20.969V5.156A1.031,1.031,0,0,1,1.031,4.125H4.125V16.844A2.409,2.409,0,0,0,6.531,19.25Zm0-14.781V0H6.531A1.031,1.031,0,0,0,5.5,1.031V16.844a1.031,1.031,0,0,0,1.031,1.031H18.219a1.031,1.031,0,0,0,1.031-1.031V5.5H14.781A1.034,1.034,0,0,1,13.75,4.469Zm5.2-1.333L16.115.3a1.031,1.031,0,0,0-.729-.3h-.26V4.125H19.25v-.26a1.031,1.031,0,0,0-.3-.729Z"/></svg>