<svg xmlns="http://www.w3.org/2000/svg" width="18" height="16" viewBox="0 0 18 16"><defs><style>.a{fill:#1f99c5;}</style></defs><path class="a" d="M17.765,5.545l-4.5,4.25A.751.751,0,0,1,12,9.249V7c-4.518.03-6.424,1.1-5.149,5.355a.5.5,0,0,1-.781.542A6.015,6.015,0,0,1,3.75,8.417C3.75,3.919,7.425,3.026,12,3V.75A.751.751,0,0,1,13.265.2l4.5,4.25A.75.75,0,0,1,17.765,5.545ZM12,11.848V14H2V4H3.591a.375.375,0,0,0,.27-.115A6.092,6.092,0,0,1,5.456,2.707.375.375,0,0,0,5.282,2H1.5A1.5,1.5,0,0,0,0,3.5v11A1.5,1.5,0,0,0,1.5,16h11A1.5,1.5,0,0,0,14,14.5V11.725a.375.375,0,0,0-.5-.353,2.245,2.245,0,0,1-1.068.106.376.376,0,0,0-.431.371Z" transform="translate(0 0)"/></svg>