<svg xmlns="http://www.w3.org/2000/svg" width="16" height="13" viewBox="0 0 16 13"><defs><style>.a{fill:#1f99c5;}</style></defs><path class="a" d="M355.6,224a3.657,3.657,0,1,0,3.6,3.656,3.683,3.683,0,0,0-1.054-2.586A3.57,3.57,0,0,0,355.6,224Zm1.6,3.816a.246.246,0,0,1-.242.246h-1.515a.246.246,0,0,1-.242-.246v-1.945a.246.246,0,0,1,.242-.246h.315a.246.246,0,0,1,.242.246v1.379h.958a.246.246,0,0,1,.242.246Z" transform="translate(-343.2 -218.312)"/><path class="a" d="M5.6,6.5A3.225,3.225,0,0,0,8.8,3.25a3.2,3.2,0,1,0-6.4,0A3.225,3.225,0,0,0,5.6,6.5ZM8,9.344a4.51,4.51,0,0,1,.455-1.968,3.282,3.282,0,0,0-.615-.063H7.423a4.291,4.291,0,0,1-3.645,0H3.36A3.387,3.387,0,0,0,0,10.724v1.057A1.209,1.209,0,0,0,1.2,13H9.878A4.489,4.489,0,0,1,8,9.344Z" transform="translate(0 0)"/></svg>